<svg width="129" height="35" viewBox="0 0 129 35" fill="none" xmlns="http://www.w3.org/2000/svg">
<path d="M40.2 19C40.2 18.08 40.3467 17.1867 40.64 16.32C40.9467 15.44 41.4 14.66 42 13.98C42.6 13.3 43.3533 12.7533 44.26 12.34C45.1667 11.9133 46.22 11.7 47.42 11.7C48.1667 11.7 48.9 11.8267 49.62 12.08C50.34 12.32 51 12.6667 51.6 13.12L50.2 15.08C49.9067 14.8133 49.52 14.58 49.04 14.38C48.5733 14.18 48.04 14.08 47.44 14.08C46.3867 14.08 45.5067 14.3267 44.8 14.82C44.1067 15.3 43.5867 15.9067 43.24 16.64C42.8933 17.36 42.72 18.1467 42.72 19C42.72 19.8533 42.8933 20.6467 43.24 21.38C43.5867 22.1 44.1067 22.7067 44.8 23.2C45.5067 23.68 46.3867 23.92 47.44 23.92C48 23.92 48.4667 23.86 48.84 23.74C49.2267 23.6067 49.54 23.4533 49.78 23.28V20.6H46.5V18.36H52.2V24.62C51.6133 25.0867 50.9 25.4867 50.06 25.82C49.22 26.14 48.34 26.3 47.42 26.3C46.22 26.3 45.1667 26.0933 44.26 25.68C43.3533 25.2533 42.6 24.7 42 24.02C41.4 23.3267 40.9467 22.5467 40.64 21.68C40.3467 20.8 40.2 19.9067 40.2 19ZM56.2117 12L59.4517 17.96L62.6917 12H65.2717L60.6517 20.44V26H58.2517V20.08H58.2917L59.3117 18.22L56.9917 18.14L53.6317 12H56.2117ZM66.9177 23.76V12H69.3177V21.62L66.9177 23.76ZM66.9177 26V23.76H75.9777V26H66.9177ZM76.9063 12L80.1463 17.96L83.3863 12H85.9663L81.3463 20.44V26H78.9463V20.08H78.9863L80.0063 18.22L77.6863 18.14L74.3263 12H76.9063ZM88.3825 16.74H89.8825L87.3825 12H89.8825L95.1825 22.06L100.482 12H101.282L103.382 26H101.022L99.7825 18L95.5825 26H94.7825L90.5825 18.06L89.3425 26H86.9825L88.3825 16.74ZM113.569 16.18H115.489L113.569 12H116.089L122.489 26H120.009L119.109 24.04H112.469L111.569 26H109.069L113.569 16.18ZM118.069 21.8L115.789 16.84L113.509 21.8H118.069ZM126.533 12V26H124.133V16.18L126.533 14.24H124.133V12H126.533Z" fill="white"/>
<path fill-rule="evenodd" clip-rule="evenodd" d="M15.7213 0L3.09836 7.63115L8.54918 2.46721L15.7213 0ZM20.6557 0.57377L25.0164 2.86885L15.5492 5.68033L20.6557 0.57377ZM27.1393 4.76229L32.2459 7.7459L35 16.3525L30.582 18.2459L27.3689 12.1639L22.4344 10.1557L27.8279 8.95082L31.8443 13.1967L32.1311 11.2459L25.877 7.57377L13.1967 13.7705L10.8443 12.6803L8.95082 15.4344L0 19.1639L0.459016 15.8934L18.3607 6.13934L27.1393 4.76229ZM12.3934 4.9918L13.4836 6.19672L11.5902 8.26229L0.459016 13.8279L1.72131 10.2705L12.3934 4.9918ZM21.0574 13.4836L24.7869 14.5738L27.082 17.9016L20.541 16.8689L10.7869 20.4262L11.5902 26.1639L5.16393 29.1475L2.69672 26.6803L4.30328 24.4426L1.66393 24.6721L0.516393 21.918L21.0574 13.4836ZM34.9426 17.8443L33.0492 25.6475L27.2541 31.7869L19.1066 34.2541L11.4754 32.5328L26.0492 27.8279L30.582 19.6803L34.9426 17.8443ZM16.0656 19.7377L19.9672 23.4672L23.1803 20.5984L27.1967 20.8852L24.7869 25.3607L19.5656 26.7951L13.4836 22.3197L13.082 20.8279L16.0656 19.7377ZM13.8279 27.6557L14.4016 29.8361L8.03279 30.9262L13.8279 27.6557Z" fill="white"/>
</svg>
