<svg width="129" height="35" xmlns="http://www.w3.org/2000/svg">
 <g>
  <title>background</title>
  <rect x="-1" y="-1" width="131" height="37" id="canvas_background" fill="none"/>
 </g>

 <g>
  <title>Layer 1</title>
  <path fill-rule="evenodd" clip-rule="evenodd" d="m61.525205,0.536241l-12.62294,7.63115l5.45082,-5.16394l7.17212,-2.46721zm4.9344,0.57377l4.3607,2.29508l-9.4672,2.81148l5.1065,-5.10656zm6.4836,4.18852l5.1066,2.98361l2.7541,8.6066l-4.418,1.8934l-3.2131,-6.082l-4.9345,-2.0082l5.3935,-1.20488l4.0164,4.24588l0.2868,-1.9508l-6.2541,-3.67213l-12.6803,6.19673l-2.3524,-1.0902l-1.89348,2.7541l-8.95082,3.7295l0.45902,-3.2705l17.90168,-9.75406l8.7786,-1.37705zm-14.7459,0.22951l1.0902,1.20492l-1.8934,2.06557l-11.13118,5.56561l1.26229,-3.5574l10.67209,-5.2787zm8.664,8.4918l3.7295,1.0902l2.2951,3.3278l-6.541,-1.0327l-9.7541,3.5573l0.8033,5.7377l-6.42627,2.9836l-2.46721,-2.4672l1.60656,-2.2377l-2.63935,0.2295l-1.14754,-2.7541l20.54101,-8.4344zm13.8852,4.3607l-1.8934,7.8032l-5.7951,6.1394l-8.1475,2.4672l-7.6312,-1.7213l14.5738,-4.7049l4.5328,-8.1476l4.3606,-1.836zm-18.877,1.8934l3.9016,3.7295l3.2131,-2.8688l4.0164,0.2868l-2.4098,4.4755l-5.2213,1.4344l-6.082,-4.4754l-0.4016,-1.4918l2.9836,-1.0902zm-2.2377,7.918l0.5737,2.1804l-6.36881,1.0901l5.79511,-3.2705z" fill="#444444" id="svg_2"/>
 </g>
</svg>